<?xml version="1.0" encoding="utf-8"?>
<!-- Generator: Adobe Illustrator 19.2.1, SVG Export Plug-In . SVG Version: 6.00 Build 0)  -->
<svg version="1.1" id="Layer_1" xmlns="http://www.w3.org/2000/svg" xmlns:xlink="http://www.w3.org/1999/xlink" x="0px" y="0px"
	 width="20px" height="20px" viewBox="0 0 20 20" style="enable-background:new 0 0 20 20;" xml:space="preserve">
<g>
	<rect x="6" y="7" style="fill:#666666;" width="7" height="3"/>
</g>
<g>
	<rect x="7" y="3" style="fill:#808080;" width="6" height="2"/>
	<path style="fill:#4EB8D1;" d="M12,3v2H7V3H12 M13,2H6v4h7V2L13,2z"/>
</g>
<g>
	<rect x="16" y="7" style="fill:#666666;" width="4" height="3"/>
</g>
<g>
	<rect x="6" y="11" style="fill:#666666;" width="7" height="3"/>
</g>
<g>
	<rect x="6" y="15" style="fill:#666666;" width="7" height="3"/>
</g>
<g>
	<rect x="16" y="2" style="fill:#808080;" width="4" height="4"/>
</g>
<g>
	<rect y="7" style="fill:#666666;" width="3" height="3"/>
</g>
<g>
	<rect y="11" style="fill:#666666;" width="3" height="3"/>
</g>
<g>
	<rect y="15" style="fill:#666666;" width="3" height="3"/>
</g>
<g>
	<rect y="2" style="fill:#808080;" width="3" height="4"/>
</g>
<g>
	<rect x="16" y="11" style="fill:#666666;" width="4" height="3"/>
</g>
<g>
	<rect x="16" y="15" style="fill:#666666;" width="4" height="3"/>
</g>
<g>
	<rect x="6" y="7" style="fill:#4EB8D1;" width="6" height="3"/>
</g>
<g>
	<rect x="6" y="11" style="fill:#4EB8D1;" width="5" height="3"/>
</g>
<g>
	<rect x="6" y="15" style="fill:#4EB8D1;" width="3" height="3"/>
</g>
<line style="fill:none;stroke:#4EB8D1;stroke-miterlimit:10;" x1="4.5" y1="0" x2="4.5" y2="20"/>
<line style="fill:none;stroke:#4EB8D1;stroke-miterlimit:10;" x1="14.5" y1="0" x2="14.5" y2="20"/>
</svg>
